<?xml version="1.0" encoding="UTF-8" standalone="no"?>
<!DOCTYPE svg PUBLIC "-//W3C//DTD SVG 1.1//EN" "http://www.w3.org/Graphics/SVG/1.1/DTD/svg11.dtd">
<svg width="100%" height="100%" viewBox="0 0 1080 1080" version="1.1" xmlns="http://www.w3.org/2000/svg" xmlns:xlink="http://www.w3.org/1999/xlink" xml:space="preserve" xmlns:serif="http://www.serif.com/" style="fill-rule:evenodd;clip-rule:evenodd;stroke-linejoin:round;stroke-miterlimit:2;">
    <path d="M277.5,924.375C225.625,924.375 181.406,906.094 144.844,869.531C108.281,832.969 90,788.75 90,736.875C90,685 108.281,640.781 144.844,604.219C181.406,567.656 225.625,549.375 277.5,549.375C329.375,549.375 373.594,567.656 410.156,604.219C446.719,640.781 465,685 465,736.875C465,788.75 446.719,832.969 410.156,869.531C373.594,906.094 329.375,924.375 277.5,924.375ZM277.5,849.375C308.75,849.375 335.313,838.438 357.188,816.563C379.063,794.687 390,768.125 390,736.875C390,705.625 379.063,679.063 357.188,657.188C335.313,635.313 308.75,624.375 277.5,624.375C246.25,624.375 219.688,635.313 197.813,657.188C175.938,679.063 165,705.625 165,736.875C165,768.125 175.938,794.687 197.813,816.563C219.688,838.438 246.25,849.375 277.5,849.375Z" style="fill:rgb(227,227,227);fill-rule:nonzero;"/>
    <path d="M802.5,924.375C750.625,924.375 706.406,906.094 669.844,869.531C633.281,832.969 615,788.75 615,736.875C615,685 633.281,640.781 669.844,604.219C706.406,567.656 750.625,549.375 802.5,549.375C854.375,549.375 898.594,567.656 935.156,604.219C971.719,640.781 990,685 990,736.875C990,788.75 971.719,832.969 935.156,869.531C898.594,906.094 854.375,924.375 802.5,924.375ZM802.5,849.375C833.75,849.375 860.313,838.438 882.188,816.563C904.063,794.687 915,768.125 915,736.875C915,705.625 904.063,679.063 882.188,657.188C860.313,635.313 833.75,624.375 802.5,624.375C771.25,624.375 744.688,635.313 722.813,657.188C700.938,679.063 690,705.625 690,736.875C690,768.125 700.938,794.687 722.813,816.563C744.688,838.438 771.25,849.375 802.5,849.375Z" style="fill:rgb(227,227,227);fill-rule:nonzero;"/>
</svg>
