<?xml version="1.0" encoding="UTF-8" standalone="no"?>
<!DOCTYPE svg PUBLIC "-//W3C//DTD SVG 1.1//EN" "http://www.w3.org/Graphics/SVG/1.1/DTD/svg11.dtd">
<svg width="100%" height="100%" viewBox="0 0 1080 1080" version="1.1" xmlns="http://www.w3.org/2000/svg" xmlns:xlink="http://www.w3.org/1999/xlink" xml:space="preserve" xmlns:serif="http://www.serif.com/" style="fill-rule:evenodd;clip-rule:evenodd;stroke-linejoin:round;stroke-miterlimit:2;">
    <g transform="matrix(0.396579,0,0,1.02303,360.912,193.307)">
        <path d="M514.621,246.026C514.621,232.539 486.374,221.589 451.582,221.589C416.79,221.589 388.543,232.539 388.543,246.026L388.543,842.292C388.543,855.779 416.79,866.729 451.582,866.729C486.374,866.729 514.621,855.779 514.621,842.292L514.621,246.026Z" style="fill:rgb(127,127,127);"/>
    </g>
    <g transform="matrix(1.02642,0,0,1.02642,64.6496,123.294)">
        <circle cx="463.117" cy="289.07" r="158.318" style="fill:rgb(101,153,255);"/>
        <path d="M463.117,130.752C550.495,130.752 621.435,201.692 621.435,289.07C621.435,376.448 550.495,447.388 463.117,447.388C375.739,447.388 304.799,376.448 304.799,289.07C304.799,201.692 375.739,130.752 463.117,130.752ZM463.117,159.98C534.363,159.98 592.207,217.824 592.207,289.07C592.207,360.317 534.363,418.16 463.117,418.16C391.87,418.16 334.027,360.317 334.027,289.07C334.027,217.824 391.87,159.98 463.117,159.98Z" style="fill:rgb(190,190,190);"/>
    </g>
    <g transform="matrix(8.75,0,0,8.75,540,420)">
        <g transform="matrix(1,0,0,1,-12,-12)">
            <path d="M5,20C3.583,20 2.396,19.521 1.438,18.563C0.479,17.604 0,16.417 0,15C0,13.583 0.488,12.396 1.463,11.438C2.438,10.479 3.617,10 5,10C6.283,10 7.363,10.383 8.238,11.15C9.113,11.917 9.667,12.867 9.9,14L10.55,14L8.75,9L7,9L7,7L12,7L12,9L10.9,9L11.25,10L16.05,10L14.6,6L12,6L12,4L14.6,4C15.033,4 15.421,4.117 15.763,4.35C16.104,4.583 16.35,4.9 16.5,5.3L18.2,9.95L19,9.95C20.383,9.95 21.563,10.438 22.538,11.413C23.513,12.387 24,13.567 24,14.95C24,16.35 23.517,17.542 22.55,18.525C21.583,19.508 20.4,20 19,20C17.8,20 16.746,19.625 15.838,18.875C14.929,18.125 14.35,17.167 14.1,16L9.9,16C9.667,17.15 9.1,18.104 8.2,18.863C7.3,19.621 6.233,20 5,20ZM5,18C5.683,18 6.271,17.813 6.763,17.438C7.254,17.063 7.6,16.583 7.8,16L5,16L5,14L7.8,14C7.6,13.4 7.254,12.917 6.763,12.55C6.271,12.183 5.683,12 5,12C4.15,12 3.438,12.288 2.863,12.862C2.288,13.438 2,14.15 2,15C2,15.833 2.288,16.542 2.863,17.125C3.438,17.708 4.15,18 5,18ZM12.7,14L14.1,14C14.183,13.617 14.296,13.258 14.438,12.925C14.579,12.592 14.767,12.283 15,12L11.95,12L12.7,14ZM19,18C19.85,18 20.563,17.708 21.138,17.125C21.713,16.542 22,15.833 22,15C22,14.15 21.713,13.438 21.138,12.862C20.563,12.288 19.85,12 19,12L18.9,12L19.9,14.65L18,15.35L17.05,12.7C16.717,12.983 16.458,13.317 16.275,13.7C16.092,14.083 16,14.517 16,15C16,15.833 16.288,16.542 16.863,17.125C17.438,17.708 18.15,18 19,18Z" style="fill:rgb(227,227,227);fill-rule:nonzero;"/>
        </g>
    </g>
</svg>
