<?xml version="1.0" encoding="UTF-8" standalone="no"?>
<!DOCTYPE svg PUBLIC "-//W3C//DTD SVG 1.1//EN" "http://www.w3.org/Graphics/SVG/1.1/DTD/svg11.dtd">
<svg width="100%" height="100%" viewBox="0 0 1080 1080" version="1.1" xmlns="http://www.w3.org/2000/svg" xmlns:xlink="http://www.w3.org/1999/xlink" xml:space="preserve" xmlns:serif="http://www.serif.com/" style="fill-rule:evenodd;clip-rule:evenodd;stroke-miterlimit:1.5;">
    <g>
        <g transform="matrix(0.505434,0,0,0.505434,-145.715,-104.025)">
            <path d="M288.298,205.813L288.298,419.491L501.975,419.491L501.975,205.813L288.298,205.813" style="fill:none;stroke:black;stroke-width:9.89px;"/>
        </g>
        <g transform="matrix(0.505434,0,0,0.505434,-37.7154,-104.025)">
            <path d="M288.298,205.813L288.298,419.491L501.975,419.491L501.975,205.813L288.298,205.813" style="fill:none;stroke:black;stroke-width:9.89px;"/>
        </g>
        <g transform="matrix(0.505434,0,0,0.505434,70.2846,-104.025)">
            <path d="M288.298,205.813L288.298,419.491L501.975,419.491L501.975,205.813L288.298,205.813" style="fill:none;stroke:black;stroke-width:9.89px;"/>
        </g>
        <g transform="matrix(0.505434,0,0,0.505434,178.285,-104.025)">
            <path d="M288.298,205.813L288.298,419.491L501.975,419.491L501.975,205.813L288.298,205.813" style="fill:none;stroke:black;stroke-width:9.89px;"/>
        </g>
        <g transform="matrix(0.505434,0,0,0.505434,286.285,-104.025)">
            <path d="M288.298,205.813L288.298,419.491L501.975,419.491L501.975,205.813L288.298,205.813" style="fill:none;stroke:black;stroke-width:9.89px;"/>
        </g>
        <g transform="matrix(0.505434,0,0,0.505434,394.285,-104.025)">
            <path d="M288.298,205.813L288.298,419.491L501.975,419.491L501.975,205.813L288.298,205.813" style="fill:none;stroke:black;stroke-width:9.89px;"/>
        </g>
        <g transform="matrix(0.505434,0,0,0.505434,502.285,-104.025)">
            <path d="M288.298,205.813L288.298,419.491L501.975,419.491L501.975,205.813L288.298,205.813" style="fill:none;stroke:black;stroke-width:9.89px;"/>
        </g>
        <g transform="matrix(0.505434,0,0,0.505434,610.285,-104.025)">
            <path d="M288.298,205.813L288.298,419.491L501.975,419.491L501.975,205.813L288.298,205.813" style="fill:none;stroke:black;stroke-width:9.89px;"/>
        </g>
        <g transform="matrix(0.505434,0,0,0.505434,718.285,-104.025)">
            <path d="M288.298,205.813L288.298,419.491L501.975,419.491L501.975,205.813L288.298,205.813" style="fill:none;stroke:black;stroke-width:9.89px;"/>
        </g>
        <g transform="matrix(0.505434,0,0,0.505434,826.285,-104.025)">
            <path d="M288.298,205.813L288.298,419.491L501.975,419.491L501.975,205.813L288.298,205.813" style="fill:none;stroke:black;stroke-width:9.89px;"/>
        </g>
    </g>
    <g transform="matrix(1,0,0,1,0,108)">
        <g transform="matrix(0.505434,0,0,0.505434,-145.715,-104.025)">
            <path d="M288.298,205.813L288.298,419.491L501.975,419.491L501.975,205.813L288.298,205.813" style="fill:none;stroke:black;stroke-width:9.89px;"/>
        </g>
        <g transform="matrix(0.505434,0,0,0.505434,-37.7154,-104.025)">
            <path d="M288.298,205.813L288.298,419.491L501.975,419.491L501.975,205.813L288.298,205.813" style="fill:none;stroke:black;stroke-width:9.89px;"/>
        </g>
        <g transform="matrix(0.505434,0,0,0.505434,70.2846,-104.025)">
            <path d="M288.298,205.813L288.298,419.491L501.975,419.491L501.975,205.813L288.298,205.813" style="fill:none;stroke:black;stroke-width:9.89px;"/>
        </g>
        <g transform="matrix(0.505434,0,0,0.505434,178.285,-104.025)">
            <path d="M288.298,205.813L288.298,419.491L501.975,419.491L501.975,205.813L288.298,205.813" style="fill:none;stroke:black;stroke-width:9.89px;"/>
        </g>
        <g transform="matrix(0.505434,0,0,0.505434,286.285,-104.025)">
            <path d="M288.298,205.813L288.298,419.491L501.975,419.491L501.975,205.813L288.298,205.813" style="fill:none;stroke:black;stroke-width:9.89px;"/>
        </g>
        <g transform="matrix(0.505434,0,0,0.505434,394.285,-104.025)">
            <path d="M288.298,205.813L288.298,419.491L501.975,419.491L501.975,205.813L288.298,205.813" style="fill:none;stroke:black;stroke-width:9.89px;"/>
        </g>
        <g transform="matrix(0.505434,0,0,0.505434,502.285,-104.025)">
            <path d="M288.298,205.813L288.298,419.491L501.975,419.491L501.975,205.813L288.298,205.813" style="fill:none;stroke:black;stroke-width:9.89px;"/>
        </g>
        <g transform="matrix(0.505434,0,0,0.505434,610.285,-104.025)">
            <path d="M288.298,205.813L288.298,419.491L501.975,419.491L501.975,205.813L288.298,205.813" style="fill:none;stroke:black;stroke-width:9.89px;"/>
        </g>
        <g transform="matrix(0.505434,0,0,0.505434,718.285,-104.025)">
            <path d="M288.298,205.813L288.298,419.491L501.975,419.491L501.975,205.813L288.298,205.813" style="fill:none;stroke:black;stroke-width:9.89px;"/>
        </g>
        <g transform="matrix(0.505434,0,0,0.505434,826.285,-104.025)">
            <path d="M288.298,205.813L288.298,419.491L501.975,419.491L501.975,205.813L288.298,205.813" style="fill:none;stroke:black;stroke-width:9.89px;"/>
        </g>
    </g>
    <g transform="matrix(1,0,0,1,0,216)">
        <g transform="matrix(0.505434,0,0,0.505434,-145.715,-104.025)">
            <path d="M288.298,205.813L288.298,419.491L501.975,419.491L501.975,205.813L288.298,205.813" style="fill:none;stroke:black;stroke-width:9.89px;"/>
        </g>
        <g transform="matrix(0.505434,0,0,0.505434,-37.7154,-104.025)">
            <path d="M288.298,205.813L288.298,419.491L501.975,419.491L501.975,205.813L288.298,205.813" style="fill:none;stroke:black;stroke-width:9.89px;"/>
        </g>
        <g transform="matrix(0.505434,0,0,0.505434,70.2846,-104.025)">
            <path d="M288.298,205.813L288.298,419.491L501.975,419.491L501.975,205.813L288.298,205.813" style="fill:none;stroke:black;stroke-width:9.89px;"/>
        </g>
        <g transform="matrix(0.505434,0,0,0.505434,178.285,-104.025)">
            <path d="M288.298,205.813L288.298,419.491L501.975,419.491L501.975,205.813L288.298,205.813" style="fill:none;stroke:black;stroke-width:9.89px;"/>
        </g>
        <g transform="matrix(0.505434,0,0,0.505434,286.285,-104.025)">
            <path d="M288.298,205.813L288.298,419.491L501.975,419.491L501.975,205.813L288.298,205.813" style="fill:none;stroke:black;stroke-width:9.89px;"/>
        </g>
        <g transform="matrix(0.505434,0,0,0.505434,394.285,-104.025)">
            <path d="M288.298,205.813L288.298,419.491L501.975,419.491L501.975,205.813L288.298,205.813" style="fill:none;stroke:black;stroke-width:9.89px;"/>
        </g>
        <g transform="matrix(0.505434,0,0,0.505434,502.285,-104.025)">
            <path d="M288.298,205.813L288.298,419.491L501.975,419.491L501.975,205.813L288.298,205.813" style="fill:none;stroke:black;stroke-width:9.89px;"/>
        </g>
        <g transform="matrix(0.505434,0,0,0.505434,610.285,-104.025)">
            <path d="M288.298,205.813L288.298,419.491L501.975,419.491L501.975,205.813L288.298,205.813" style="fill:none;stroke:black;stroke-width:9.89px;"/>
        </g>
        <g transform="matrix(0.505434,0,0,0.505434,718.285,-104.025)">
            <path d="M288.298,205.813L288.298,419.491L501.975,419.491L501.975,205.813L288.298,205.813" style="fill:none;stroke:black;stroke-width:9.89px;"/>
        </g>
        <g transform="matrix(0.505434,0,0,0.505434,826.285,-104.025)">
            <path d="M288.298,205.813L288.298,419.491L501.975,419.491L501.975,205.813L288.298,205.813" style="fill:none;stroke:black;stroke-width:9.89px;"/>
        </g>
    </g>
    <g transform="matrix(1,0,0,1,0,324)">
        <g transform="matrix(0.505434,0,0,0.505434,-145.715,-104.025)">
            <path d="M288.298,205.813L288.298,419.491L501.975,419.491L501.975,205.813L288.298,205.813" style="fill:none;stroke:black;stroke-width:9.89px;"/>
        </g>
        <g transform="matrix(0.505434,0,0,0.505434,-37.7154,-104.025)">
            <path d="M288.298,205.813L288.298,419.491L501.975,419.491L501.975,205.813L288.298,205.813" style="fill:none;stroke:black;stroke-width:9.89px;"/>
        </g>
        <g transform="matrix(0.505434,0,0,0.505434,70.2846,-104.025)">
            <path d="M288.298,205.813L288.298,419.491L501.975,419.491L501.975,205.813L288.298,205.813" style="fill:none;stroke:black;stroke-width:9.89px;"/>
        </g>
        <g transform="matrix(0.505434,0,0,0.505434,178.285,-104.025)">
            <path d="M288.298,205.813L288.298,419.491L501.975,419.491L501.975,205.813L288.298,205.813" style="fill:none;stroke:black;stroke-width:9.89px;"/>
        </g>
        <g transform="matrix(0.505434,0,0,0.505434,286.285,-104.025)">
            <path d="M288.298,205.813L288.298,419.491L501.975,419.491L501.975,205.813L288.298,205.813" style="fill:none;stroke:black;stroke-width:9.89px;"/>
        </g>
        <g transform="matrix(0.505434,0,0,0.505434,394.285,-104.025)">
            <path d="M288.298,205.813L288.298,419.491L501.975,419.491L501.975,205.813L288.298,205.813" style="fill:none;stroke:black;stroke-width:9.89px;"/>
        </g>
        <g transform="matrix(0.505434,0,0,0.505434,502.285,-104.025)">
            <path d="M288.298,205.813L288.298,419.491L501.975,419.491L501.975,205.813L288.298,205.813" style="fill:none;stroke:black;stroke-width:9.89px;"/>
        </g>
        <g transform="matrix(0.505434,0,0,0.505434,610.285,-104.025)">
            <path d="M288.298,205.813L288.298,419.491L501.975,419.491L501.975,205.813L288.298,205.813" style="fill:none;stroke:black;stroke-width:9.89px;"/>
        </g>
        <g transform="matrix(0.505434,0,0,0.505434,718.285,-104.025)">
            <path d="M288.298,205.813L288.298,419.491L501.975,419.491L501.975,205.813L288.298,205.813" style="fill:none;stroke:black;stroke-width:9.89px;"/>
        </g>
        <g transform="matrix(0.505434,0,0,0.505434,826.285,-104.025)">
            <path d="M288.298,205.813L288.298,419.491L501.975,419.491L501.975,205.813L288.298,205.813" style="fill:none;stroke:black;stroke-width:9.89px;"/>
        </g>
    </g>
    <g transform="matrix(1,0,0,1,0,432)">
        <g transform="matrix(0.505434,0,0,0.505434,-145.715,-104.025)">
            <path d="M288.298,205.813L288.298,419.491L501.975,419.491L501.975,205.813L288.298,205.813" style="fill:none;stroke:black;stroke-width:9.89px;"/>
        </g>
        <g transform="matrix(0.505434,0,0,0.505434,-37.7154,-104.025)">
            <path d="M288.298,205.813L288.298,419.491L501.975,419.491L501.975,205.813L288.298,205.813" style="fill:none;stroke:black;stroke-width:9.89px;"/>
        </g>
        <g transform="matrix(0.505434,0,0,0.505434,70.2846,-104.025)">
            <path d="M288.298,205.813L288.298,419.491L501.975,419.491L501.975,205.813L288.298,205.813" style="fill:none;stroke:black;stroke-width:9.89px;"/>
        </g>
        <g transform="matrix(0.505434,0,0,0.505434,178.285,-104.025)">
            <path d="M288.298,205.813L288.298,419.491L501.975,419.491L501.975,205.813L288.298,205.813" style="fill:none;stroke:black;stroke-width:9.89px;"/>
        </g>
        <g transform="matrix(0.505434,0,0,0.505434,286.285,-104.025)">
            <path d="M288.298,205.813L288.298,419.491L501.975,419.491L501.975,205.813L288.298,205.813" style="fill:none;stroke:black;stroke-width:9.89px;"/>
        </g>
        <g transform="matrix(0.505434,0,0,0.505434,394.285,-104.025)">
            <path d="M288.298,205.813L288.298,419.491L501.975,419.491L501.975,205.813L288.298,205.813" style="fill:none;stroke:black;stroke-width:9.89px;"/>
        </g>
        <g transform="matrix(0.505434,0,0,0.505434,502.285,-104.025)">
            <path d="M288.298,205.813L288.298,419.491L501.975,419.491L501.975,205.813L288.298,205.813" style="fill:none;stroke:black;stroke-width:9.89px;"/>
        </g>
        <g transform="matrix(0.505434,0,0,0.505434,610.285,-104.025)">
            <path d="M288.298,205.813L288.298,419.491L501.975,419.491L501.975,205.813L288.298,205.813" style="fill:none;stroke:black;stroke-width:9.89px;"/>
        </g>
        <g transform="matrix(0.505434,0,0,0.505434,718.285,-104.025)">
            <path d="M288.298,205.813L288.298,419.491L501.975,419.491L501.975,205.813L288.298,205.813" style="fill:none;stroke:black;stroke-width:9.89px;"/>
        </g>
        <g transform="matrix(0.505434,0,0,0.505434,826.285,-104.025)">
            <path d="M288.298,205.813L288.298,419.491L501.975,419.491L501.975,205.813L288.298,205.813" style="fill:none;stroke:black;stroke-width:9.89px;"/>
        </g>
    </g>
    <g transform="matrix(1,0,0,1,0,540)">
        <g transform="matrix(0.505434,0,0,0.505434,-145.715,-104.025)">
            <path d="M288.298,205.813L288.298,419.491L501.975,419.491L501.975,205.813L288.298,205.813" style="fill:none;stroke:black;stroke-width:9.89px;"/>
        </g>
        <g transform="matrix(0.505434,0,0,0.505434,-37.7154,-104.025)">
            <path d="M288.298,205.813L288.298,419.491L501.975,419.491L501.975,205.813L288.298,205.813" style="fill:none;stroke:black;stroke-width:9.89px;"/>
        </g>
        <g transform="matrix(0.505434,0,0,0.505434,70.2846,-104.025)">
            <path d="M288.298,205.813L288.298,419.491L501.975,419.491L501.975,205.813L288.298,205.813" style="fill:none;stroke:black;stroke-width:9.89px;"/>
        </g>
        <g transform="matrix(0.505434,0,0,0.505434,178.285,-104.025)">
            <path d="M288.298,205.813L288.298,419.491L501.975,419.491L501.975,205.813L288.298,205.813" style="fill:none;stroke:black;stroke-width:9.89px;"/>
        </g>
        <g transform="matrix(0.505434,0,0,0.505434,286.285,-104.025)">
            <path d="M288.298,205.813L288.298,419.491L501.975,419.491L501.975,205.813L288.298,205.813" style="fill:none;stroke:black;stroke-width:9.89px;"/>
        </g>
        <g transform="matrix(0.505434,0,0,0.505434,394.285,-104.025)">
            <path d="M288.298,205.813L288.298,419.491L501.975,419.491L501.975,205.813L288.298,205.813" style="fill:none;stroke:black;stroke-width:9.89px;"/>
        </g>
        <g transform="matrix(0.505434,0,0,0.505434,502.285,-104.025)">
            <path d="M288.298,205.813L288.298,419.491L501.975,419.491L501.975,205.813L288.298,205.813" style="fill:none;stroke:black;stroke-width:9.89px;"/>
        </g>
        <g transform="matrix(0.505434,0,0,0.505434,610.285,-104.025)">
            <path d="M288.298,205.813L288.298,419.491L501.975,419.491L501.975,205.813L288.298,205.813" style="fill:none;stroke:black;stroke-width:9.89px;"/>
        </g>
        <g transform="matrix(0.505434,0,0,0.505434,718.285,-104.025)">
            <path d="M288.298,205.813L288.298,419.491L501.975,419.491L501.975,205.813L288.298,205.813" style="fill:none;stroke:black;stroke-width:9.89px;"/>
        </g>
        <g transform="matrix(0.505434,0,0,0.505434,826.285,-104.025)">
            <path d="M288.298,205.813L288.298,419.491L501.975,419.491L501.975,205.813L288.298,205.813" style="fill:none;stroke:black;stroke-width:9.89px;"/>
        </g>
    </g>
    <g transform="matrix(1,0,0,1,0,648)">
        <g transform="matrix(0.505434,0,0,0.505434,-145.715,-104.025)">
            <path d="M288.298,205.813L288.298,419.491L501.975,419.491L501.975,205.813L288.298,205.813" style="fill:none;stroke:black;stroke-width:9.89px;"/>
        </g>
        <g transform="matrix(0.505434,0,0,0.505434,-37.7154,-104.025)">
            <path d="M288.298,205.813L288.298,419.491L501.975,419.491L501.975,205.813L288.298,205.813" style="fill:none;stroke:black;stroke-width:9.89px;"/>
        </g>
        <g transform="matrix(0.505434,0,0,0.505434,70.2846,-104.025)">
            <path d="M288.298,205.813L288.298,419.491L501.975,419.491L501.975,205.813L288.298,205.813" style="fill:none;stroke:black;stroke-width:9.89px;"/>
        </g>
        <g transform="matrix(0.505434,0,0,0.505434,178.285,-104.025)">
            <path d="M288.298,205.813L288.298,419.491L501.975,419.491L501.975,205.813L288.298,205.813" style="fill:none;stroke:black;stroke-width:9.89px;"/>
        </g>
        <g transform="matrix(0.505434,0,0,0.505434,286.285,-104.025)">
            <path d="M288.298,205.813L288.298,419.491L501.975,419.491L501.975,205.813L288.298,205.813" style="fill:none;stroke:black;stroke-width:9.89px;"/>
        </g>
        <g transform="matrix(0.505434,0,0,0.505434,394.285,-104.025)">
            <path d="M288.298,205.813L288.298,419.491L501.975,419.491L501.975,205.813L288.298,205.813" style="fill:none;stroke:black;stroke-width:9.89px;"/>
        </g>
        <g transform="matrix(0.505434,0,0,0.505434,502.285,-104.025)">
            <path d="M288.298,205.813L288.298,419.491L501.975,419.491L501.975,205.813L288.298,205.813" style="fill:none;stroke:black;stroke-width:9.89px;"/>
        </g>
        <g transform="matrix(0.505434,0,0,0.505434,610.285,-104.025)">
            <path d="M288.298,205.813L288.298,419.491L501.975,419.491L501.975,205.813L288.298,205.813" style="fill:none;stroke:black;stroke-width:9.89px;"/>
        </g>
        <g transform="matrix(0.505434,0,0,0.505434,718.285,-104.025)">
            <path d="M288.298,205.813L288.298,419.491L501.975,419.491L501.975,205.813L288.298,205.813" style="fill:none;stroke:black;stroke-width:9.89px;"/>
        </g>
        <g transform="matrix(0.505434,0,0,0.505434,826.285,-104.025)">
            <path d="M288.298,205.813L288.298,419.491L501.975,419.491L501.975,205.813L288.298,205.813" style="fill:none;stroke:black;stroke-width:9.89px;"/>
        </g>
    </g>
    <g transform="matrix(1,0,0,1,0,756)">
        <g transform="matrix(0.505434,0,0,0.505434,-145.715,-104.025)">
            <path d="M288.298,205.813L288.298,419.491L501.975,419.491L501.975,205.813L288.298,205.813" style="fill:none;stroke:black;stroke-width:9.89px;"/>
        </g>
        <g transform="matrix(0.505434,0,0,0.505434,-37.7154,-104.025)">
            <path d="M288.298,205.813L288.298,419.491L501.975,419.491L501.975,205.813L288.298,205.813" style="fill:none;stroke:black;stroke-width:9.89px;"/>
        </g>
        <g transform="matrix(0.505434,0,0,0.505434,70.2846,-104.025)">
            <path d="M288.298,205.813L288.298,419.491L501.975,419.491L501.975,205.813L288.298,205.813" style="fill:none;stroke:black;stroke-width:9.89px;"/>
        </g>
        <g transform="matrix(0.505434,0,0,0.505434,178.285,-104.025)">
            <path d="M288.298,205.813L288.298,419.491L501.975,419.491L501.975,205.813L288.298,205.813" style="fill:none;stroke:black;stroke-width:9.89px;"/>
        </g>
        <g transform="matrix(0.505434,0,0,0.505434,286.285,-104.025)">
            <path d="M288.298,205.813L288.298,419.491L501.975,419.491L501.975,205.813L288.298,205.813" style="fill:none;stroke:black;stroke-width:9.89px;"/>
        </g>
        <g transform="matrix(0.505434,0,0,0.505434,394.285,-104.025)">
            <path d="M288.298,205.813L288.298,419.491L501.975,419.491L501.975,205.813L288.298,205.813" style="fill:none;stroke:black;stroke-width:9.89px;"/>
        </g>
        <g transform="matrix(0.505434,0,0,0.505434,502.285,-104.025)">
            <path d="M288.298,205.813L288.298,419.491L501.975,419.491L501.975,205.813L288.298,205.813" style="fill:none;stroke:black;stroke-width:9.89px;"/>
        </g>
        <g transform="matrix(0.505434,0,0,0.505434,610.285,-104.025)">
            <path d="M288.298,205.813L288.298,419.491L501.975,419.491L501.975,205.813L288.298,205.813" style="fill:none;stroke:black;stroke-width:9.89px;"/>
        </g>
        <g transform="matrix(0.505434,0,0,0.505434,718.285,-104.025)">
            <path d="M288.298,205.813L288.298,419.491L501.975,419.491L501.975,205.813L288.298,205.813" style="fill:none;stroke:black;stroke-width:9.89px;"/>
        </g>
        <g transform="matrix(0.505434,0,0,0.505434,826.285,-104.025)">
            <path d="M288.298,205.813L288.298,419.491L501.975,419.491L501.975,205.813L288.298,205.813" style="fill:none;stroke:black;stroke-width:9.89px;"/>
        </g>
    </g>
    <g transform="matrix(1,0,0,1,0,864)">
        <g transform="matrix(0.505434,0,0,0.505434,-145.715,-104.025)">
            <path d="M288.298,205.813L288.298,419.491L501.975,419.491L501.975,205.813L288.298,205.813" style="fill:none;stroke:black;stroke-width:9.89px;"/>
        </g>
        <g transform="matrix(0.505434,0,0,0.505434,-37.7154,-104.025)">
            <path d="M288.298,205.813L288.298,419.491L501.975,419.491L501.975,205.813L288.298,205.813" style="fill:none;stroke:black;stroke-width:9.89px;"/>
        </g>
        <g transform="matrix(0.505434,0,0,0.505434,70.2846,-104.025)">
            <path d="M288.298,205.813L288.298,419.491L501.975,419.491L501.975,205.813L288.298,205.813" style="fill:none;stroke:black;stroke-width:9.89px;"/>
        </g>
        <g transform="matrix(0.505434,0,0,0.505434,178.285,-104.025)">
            <path d="M288.298,205.813L288.298,419.491L501.975,419.491L501.975,205.813L288.298,205.813" style="fill:none;stroke:black;stroke-width:9.89px;"/>
        </g>
        <g transform="matrix(0.505434,0,0,0.505434,286.285,-104.025)">
            <path d="M288.298,205.813L288.298,419.491L501.975,419.491L501.975,205.813L288.298,205.813" style="fill:none;stroke:black;stroke-width:9.89px;"/>
        </g>
        <g transform="matrix(0.505434,0,0,0.505434,394.285,-104.025)">
            <path d="M288.298,205.813L288.298,419.491L501.975,419.491L501.975,205.813L288.298,205.813" style="fill:none;stroke:black;stroke-width:9.89px;"/>
        </g>
        <g transform="matrix(0.505434,0,0,0.505434,502.285,-104.025)">
            <path d="M288.298,205.813L288.298,419.491L501.975,419.491L501.975,205.813L288.298,205.813" style="fill:none;stroke:black;stroke-width:9.89px;"/>
        </g>
        <g transform="matrix(0.505434,0,0,0.505434,610.285,-104.025)">
            <path d="M288.298,205.813L288.298,419.491L501.975,419.491L501.975,205.813L288.298,205.813" style="fill:none;stroke:black;stroke-width:9.89px;"/>
        </g>
        <g transform="matrix(0.505434,0,0,0.505434,718.285,-104.025)">
            <path d="M288.298,205.813L288.298,419.491L501.975,419.491L501.975,205.813L288.298,205.813" style="fill:none;stroke:black;stroke-width:9.89px;"/>
        </g>
        <g transform="matrix(0.505434,0,0,0.505434,826.285,-104.025)">
            <path d="M288.298,205.813L288.298,419.491L501.975,419.491L501.975,205.813L288.298,205.813" style="fill:none;stroke:black;stroke-width:9.89px;"/>
        </g>
    </g>
    <g transform="matrix(1,0,0,1,0,972)">
        <g transform="matrix(0.505434,0,0,0.505434,-145.715,-104.025)">
            <path d="M288.298,205.813L288.298,419.491L501.975,419.491L501.975,205.813L288.298,205.813" style="fill:none;stroke:black;stroke-width:9.89px;"/>
        </g>
        <g transform="matrix(0.505434,0,0,0.505434,-37.7154,-104.025)">
            <path d="M288.298,205.813L288.298,419.491L501.975,419.491L501.975,205.813L288.298,205.813" style="fill:none;stroke:black;stroke-width:9.89px;"/>
        </g>
        <g transform="matrix(0.505434,0,0,0.505434,70.2846,-104.025)">
            <path d="M288.298,205.813L288.298,419.491L501.975,419.491L501.975,205.813L288.298,205.813" style="fill:none;stroke:black;stroke-width:9.89px;"/>
        </g>
        <g transform="matrix(0.505434,0,0,0.505434,178.285,-104.025)">
            <path d="M288.298,205.813L288.298,419.491L501.975,419.491L501.975,205.813L288.298,205.813" style="fill:none;stroke:black;stroke-width:9.89px;"/>
        </g>
        <g transform="matrix(0.505434,0,0,0.505434,286.285,-104.025)">
            <path d="M288.298,205.813L288.298,419.491L501.975,419.491L501.975,205.813L288.298,205.813" style="fill:none;stroke:black;stroke-width:9.89px;"/>
        </g>
        <g transform="matrix(0.505434,0,0,0.505434,394.285,-104.025)">
            <path d="M288.298,205.813L288.298,419.491L501.975,419.491L501.975,205.813L288.298,205.813" style="fill:none;stroke:black;stroke-width:9.89px;"/>
        </g>
        <g transform="matrix(0.505434,0,0,0.505434,502.285,-104.025)">
            <path d="M288.298,205.813L288.298,419.491L501.975,419.491L501.975,205.813L288.298,205.813" style="fill:none;stroke:black;stroke-width:9.89px;"/>
        </g>
        <g transform="matrix(0.505434,0,0,0.505434,610.285,-104.025)">
            <path d="M288.298,205.813L288.298,419.491L501.975,419.491L501.975,205.813L288.298,205.813" style="fill:none;stroke:black;stroke-width:9.89px;"/>
        </g>
        <g transform="matrix(0.505434,0,0,0.505434,718.285,-104.025)">
            <path d="M288.298,205.813L288.298,419.491L501.975,419.491L501.975,205.813L288.298,205.813" style="fill:none;stroke:black;stroke-width:9.89px;"/>
        </g>
        <g transform="matrix(0.505434,0,0,0.505434,826.285,-104.025)">
            <path d="M288.298,205.813L288.298,419.491L501.975,419.491L501.975,205.813L288.298,205.813" style="fill:none;stroke:black;stroke-width:9.89px;"/>
        </g>
    </g>
</svg>
