<?xml version="1.0" encoding="UTF-8" standalone="no"?>
<!DOCTYPE svg PUBLIC "-//W3C//DTD SVG 1.1//EN" "http://www.w3.org/Graphics/SVG/1.1/DTD/svg11.dtd">
<svg width="100%" height="100%" viewBox="0 0 1080 1080" version="1.1" xmlns="http://www.w3.org/2000/svg" xmlns:xlink="http://www.w3.org/1999/xlink" xml:space="preserve" xmlns:serif="http://www.serif.com/" style="fill-rule:evenodd;clip-rule:evenodd;stroke-linejoin:round;stroke-miterlimit:2;">
    <g transform="matrix(1.33333,0,0,1.33333,-227.209,-135.214)">
        <path d="M980.406,213.911C980.406,184.074 968.553,155.459 947.455,134.361C926.358,113.263 897.743,101.411 867.906,101.411L282.906,101.411C253.069,101.411 224.455,113.263 203.357,134.361C182.259,155.459 170.406,184.074 170.406,213.911L170.406,798.91C170.406,828.747 182.259,857.362 203.357,878.46C224.455,899.558 253.069,911.41 282.906,911.41L867.906,911.41C897.743,911.41 926.358,899.558 947.455,878.46C968.553,857.362 980.406,828.747 980.406,798.91L980.406,213.911Z" style="fill:rgb(71,71,235);"/>
    </g>
    <g transform="matrix(1,0,0,1,0,-212.201)">
        <g>
            <g transform="matrix(2.05057,0,0,0.313035,-426.922,888.893)">
                <path d="M508.113,314.044C508.113,234.704 498.28,170.29 486.168,170.29L456.908,170.29C444.796,170.29 434.963,234.704 434.963,314.044L434.963,505.716C434.963,585.056 444.796,649.47 456.908,649.47L486.168,649.47C498.28,649.47 508.113,585.056 508.113,505.716L508.113,314.044Z" style="fill:white;"/>
            </g>
            <g transform="matrix(2.05057,0,0,1.00171,-426.922,241.62)">
                <path d="M508.113,215.213C508.113,190.42 498.28,170.29 486.168,170.29L456.908,170.29C444.796,170.29 434.963,190.42 434.963,215.213L434.963,604.547C434.963,629.34 444.796,649.47 456.908,649.47L486.168,649.47C498.28,649.47 508.113,629.34 508.113,604.547L508.113,215.213Z" style="fill:white;"/>
            </g>
        </g>
    </g>
</svg>
