<?xml version="1.0" encoding="UTF-8"?>
<!DOCTYPE svg PUBLIC "-//W3C//DTD SVG 1.1//EN" "http://www.w3.org/Graphics/SVG/1.1/DTD/svg11.dtd">
<svg xmlns="http://www.w3.org/2000/svg" version="1.1" width="700px" height="1000px" style="shape-rendering:geometricPrecision; text-rendering:geometricPrecision; image-rendering:optimizeQuality; fill-rule:evenodd; clip-rule:evenodd" xmlns:xlink="http://www.w3.org/1999/xlink">
<g><path style="opacity:1" fill="#010101" d="M 373.5,68.5 C 380.182,67.8251 382.682,70.8251 381,77.5C 379.471,78.7287 378.304,80.2287 377.5,82C 381.015,81.686 384.515,81.5193 388,81.5C 389.714,82.0762 390.881,83.2429 391.5,85C 383.695,86.5002 375.862,88.0002 368,89.5C 365.945,88.328 365.278,86.6614 366,84.5C 371.753,84.1553 375.586,81.322 377.5,76C 375.707,71.9484 373.373,71.9484 370.5,76C 369.5,76.6667 368.5,76.6667 367.5,76C 368.69,72.7505 370.69,70.2505 373.5,68.5 Z"/></g>
<g><path style="opacity:1" fill="#010101" d="M 407.5,68.5 C 409.086,69.4132 410.586,69.4132 412,68.5C 413.195,71.5279 412.695,74.5279 410.5,77.5C 410.833,77.8333 411.167,78.1667 411.5,78.5C 412.425,77.3595 413.259,77.3595 414,78.5C 415.04,68.0939 416.54,68.0939 418.5,78.5C 419.93,78.5792 421.264,78.2458 422.5,77.5C 423.5,77.8333 424.167,78.5 424.5,79.5C 422.376,80.1494 420.376,80.9827 418.5,82C 420.084,85.7327 419.25,88.8994 416,91.5C 415.5,91 415,90.5 414.5,90C 415.444,87.2809 415.777,84.4475 415.5,81.5C 411.167,81.5 406.833,81.5 402.5,81.5C 403.139,79.2396 404.306,77.2396 406,75.5C 406.44,73.1341 406.94,70.8008 407.5,68.5 Z"/></g>
<g><path style="opacity:1" fill="#000000" d="M 240.5,71.5 C 247.586,70.9684 251.253,74.3018 251.5,81.5C 251.712,84.0114 251.045,86.1781 249.5,88C 252.638,89.2444 255.972,89.911 259.5,90C 259.957,90.414 260.291,90.914 260.5,91.5C 255.868,92.3283 251.202,92.8283 246.5,93C 244.656,95.3429 242.656,97.5096 240.5,99.5C 237.853,97.4509 237.019,94.7842 238,91.5C 240.637,89.5395 243.303,87.5395 246,85.5C 249.05,79.846 247.55,77.0127 241.5,77C 238.572,78.2873 236.238,80.2873 234.5,83C 233.552,83.4828 232.552,83.6495 231.5,83.5C 232.726,78.1158 235.726,74.1158 240.5,71.5 Z"/></g>
<g><path style="opacity:1" fill="#010101" d="M 285.5,72.5 C 292.231,71.4476 296.731,74.1142 299,80.5C 299.517,86.692 297.517,92.0253 293,96.5C 290.958,96.1821 288.791,96.0154 286.5,96C 279.058,88.4925 278.725,80.6592 285.5,72.5 Z M 287.5,75.5 C 294.607,75.6752 297.44,79.3418 296,86.5C 294.898,88.3809 293.565,90.0475 292,91.5C 283.376,87.8273 281.876,82.494 287.5,75.5 Z"/></g>
<g><path style="opacity:0.993" fill="#000000" d="M 376.5,89.5 C 387.582,90.8559 394.582,97.1892 397.5,108.5C 395.135,111.23 394.468,114.23 395.5,117.5C 394.397,117.998 393.397,118.331 392.5,118.5C 394.461,119.848 394.628,121.181 393,122.5C 392.833,124.667 392.667,126.833 392.5,129C 393.506,135.029 393.506,141.029 392.5,147C 393.394,148.396 394.061,149.896 394.5,151.5C 392.455,156.926 392.455,162.259 394.5,167.5C 391.84,174.195 391.84,180.862 394.5,187.5C 393.82,195.447 393.82,203.28 394.5,211C 395.167,212 395.833,213 396.5,214C 395.859,218.452 395.192,222.952 394.5,227.5C 391.232,228.995 387.898,228.495 384.5,226C 382.996,224.509 382.163,222.676 382,220.5C 380.933,219.809 379.766,219.309 378.5,219C 369.531,217.982 360.865,217.482 352.5,217.5C 347.587,217.583 342.754,218.249 338,219.5C 334.524,219.35 331.024,219.017 327.5,218.5C 320.272,219.568 312.938,220.902 305.5,222.5C 304.228,222.43 303.062,222.097 302,221.5C 299.034,223.097 295.867,224.43 292.5,225.5C 291.033,225.277 289.533,224.944 288,224.5C 286.846,228.503 284.512,231.503 281,233.5C 278.588,231.901 276.088,230.568 273.5,229.5C 274.833,207.518 275.833,185.518 276.5,163.5C 274.742,145.177 273.242,126.844 272,108.5C 263.62,100.093 265.12,96.9264 276.5,99C 279.226,101.03 282.226,102.53 285.5,103.5C 298.751,98.9163 312.251,95.2496 326,92.5C 326.414,92.9574 326.914,93.2907 327.5,93.5C 337.453,92.6908 347.453,92.1908 357.5,92C 360.426,91.7822 363.26,91.2822 366,90.5C 366.414,90.9574 366.914,91.2907 367.5,91.5C 370.64,90.9106 373.64,90.2439 376.5,89.5 Z M 353.5,97.5 C 360.574,97.1976 367.907,97.6976 375.5,99C 378.135,100.961 379.969,103.461 381,106.5C 380.462,117.062 380.629,127.562 381.5,138C 379.023,146.81 379.023,155.643 381.5,164.5C 380.323,179.82 380.323,195.153 381.5,210.5C 378.572,210.852 375.738,211.518 373,212.5C 372.586,212.043 372.086,211.709 371.5,211.5C 360.406,212.487 349.406,213.154 338.5,213.5C 337.52,203.336 337.52,193.336 338.5,183.5C 346.18,187.003 353.18,191.503 359.5,197C 361.218,197.346 362.885,197.846 364.5,198.5C 367.202,197.478 369.869,196.478 372.5,195.5C 372.649,194.448 372.483,193.448 372,192.5C 367.56,186.304 361.727,183.47 354.5,184C 352.998,183.417 351.665,182.584 350.5,181.5C 354.384,179.79 357.884,177.457 361,174.5C 361.667,172.5 361.667,170.5 361,168.5C 358.815,167.072 356.815,165.405 355,163.5C 353.372,164.819 353.539,166.152 355.5,167.5C 353.838,175.354 349.171,179.187 341.5,179C 335.262,177.171 334.929,174.504 340.5,171C 342.11,169.505 343.776,169.339 345.5,170.5C 349.938,168.564 350.272,166.397 346.5,164C 350.508,160.811 352.508,156.645 352.5,151.5C 349.882,151.221 347.382,150.554 345,149.5C 339.323,151.88 333.49,153.88 327.5,155.5C 325.742,154.872 324.242,153.872 323,152.5C 321.759,154.421 320.259,154.754 318.5,153.5C 320.428,151.422 322.595,150.755 325,151.5C 328.338,148.667 332.005,148 336,149.5C 338.192,147.765 340.692,146.598 343.5,146C 347.421,145.797 351.255,145.297 355,144.5C 358.75,145.982 362.583,146.816 366.5,147C 367.097,145.372 366.763,143.705 365.5,142C 363.361,140.596 361.028,139.763 358.5,139.5C 355.854,140.214 353.354,140.214 351,139.5C 348.306,140.783 345.64,141.116 343,140.5C 341.441,141.029 339.941,141.696 338.5,142.5C 337.209,138.955 337.209,135.455 338.5,132C 344.099,129.068 350.099,127.902 356.5,128.5C 356.649,127.448 356.483,126.448 356,125.5C 352.664,122.125 348.998,121.792 345,124.5C 342.973,124.014 340.807,124.014 338.5,124.5C 338.543,121.413 338.71,118.413 339,115.5C 336.179,112.184 332.679,109.851 328.5,108.5C 327.833,108.833 327.167,109.167 326.5,109.5C 331.009,114.63 332.676,120.63 331.5,127.5C 328.171,127.998 325.005,128.998 322,130.5C 319.281,129.556 316.448,129.223 313.5,129.5C 313.351,130.552 313.517,131.552 314,132.5C 315.705,134.977 317.705,136.311 320,136.5C 323.629,136.05 327.462,135.384 331.5,134.5C 331.5,137.5 331.5,140.5 331.5,143.5C 325.478,144.175 319.811,146.008 314.5,149C 309.516,150.315 304.516,150.815 299.5,150.5C 304.669,154.205 310.336,155.872 316.5,155.5C 321.343,159.878 322.843,165.212 321,171.5C 323.268,173.768 325.101,175.601 326.5,177C 321.959,183.55 316.626,189.55 310.5,195C 306.845,197.516 303.178,199.183 299.5,200C 300.43,200.991 301.596,201.491 303,201.5C 313.837,198.184 323.003,192.184 330.5,183.5C 330.833,185.5 331.167,187.5 331.5,189.5C 330.878,197.826 330.378,206.159 330,214.5C 329.586,214.043 329.086,213.709 328.5,213.5C 315.893,215.277 303.226,216.944 290.5,218.5C 287.333,218.916 284.999,217.75 283.5,215C 283.957,214.586 284.291,214.086 284.5,213.5C 283.625,201.042 282.958,188.542 282.5,176C 283.004,159.035 283.004,142.202 282.5,125.5C 282.667,123.833 282.833,122.167 283,120.5C 287.056,118.311 287.556,115.311 284.5,111.5C 293.233,107.914 302.233,104.747 311.5,102C 325.542,99.4469 339.542,97.9469 353.5,97.5 Z M 342.5,155.5 C 343.376,155.369 344.043,155.702 344.5,156.5C 340.53,162.654 334.863,165.987 327.5,166.5C 327.261,164.533 327.594,162.699 328.5,161C 333.159,158.842 337.825,157.009 342.5,155.5 Z"/></g>
<g><path style="opacity:1" fill="#000000" d="M 475.5,92.5 C 479.988,93.9856 483.988,96.3189 487.5,99.5C 492.997,98.453 498.497,97.453 504,96.5C 506.722,97.4441 509.222,98.7775 511.5,100.5C 510.787,102.776 510.287,105.109 510,107.5C 506.942,109.957 504.608,112.957 503,116.5C 498.819,127.552 494.486,138.552 490,149.5C 484.69,159.148 478.19,167.815 470.5,175.5C 466.741,178.375 462.741,180.708 458.5,182.5C 457.5,182.167 456.5,181.833 455.5,181.5C 459.619,179.686 463.119,177.019 466,173.5C 471.778,166.529 476.612,158.862 480.5,150.5C 477.846,147.681 476.346,144.348 476,140.5C 467.615,136.462 468.448,134.628 478.5,135C 480.969,137.441 482.802,140.274 484,143.5C 485.322,140.363 486.488,137.196 487.5,134C 482.75,132.083 479.083,128.916 476.5,124.5C 478.044,122.554 480.044,122.054 482.5,123C 485.601,123.942 487.934,125.776 489.5,128.5C 492.546,121.194 495.879,114.028 499.5,107C 498.584,106.626 497.75,106.126 497,105.5C 495.204,106.767 493.371,106.767 491.5,105.5C 490.203,107.367 488.703,107.7 487,106.5C 485.5,107 484,107.5 482.5,108C 476.809,119.214 470.976,130.381 465,141.5C 461.957,145.462 458.124,147.128 453.5,146.5C 459.562,139.4 464.395,131.4 468,122.5C 469.601,116.363 471.601,110.363 474,104.5C 472.986,100.302 473.486,96.3024 475.5,92.5 Z"/></g>
<g><path style="opacity:0.998" fill="#000000" d="M 174.5,93.5 C 180.907,93.0151 184.573,95.8484 185.5,102C 181.738,112.167 176.405,121.333 169.5,129.5C 170.242,130.287 171.075,130.953 172,131.5C 176.134,130.804 180.3,130.137 184.5,129.5C 185.962,130.471 187.295,130.138 188.5,128.5C 196.013,128.44 201.847,131.773 206,138.5C 206.89,142.133 206.057,145.3 203.5,148C 202.451,148.492 201.451,148.326 200.5,147.5C 198.973,149.193 197.64,151.027 196.5,153C 190.934,155.9 185.934,159.567 181.5,164C 178.387,165.779 175.054,166.945 171.5,167.5C 170,167.547 169,166.881 168.5,165.5C 175.262,160.903 180.428,154.903 184,147.5C 186.5,145 189,142.5 191.5,140C 190.5,139 189.5,138 188.5,137C 158.663,134.34 130.163,138.507 103,149.5C 100.65,148.496 98.3163,147.496 96,146.5C 94.9656,156.27 91.9656,165.27 87,173.5C 82.4795,171.972 79.9795,168.805 79.5,164C 82.0325,162.464 83.8658,160.298 85,157.5C 85.6309,154.607 86.4642,151.774 87.5,149C 87.4087,145.804 87.4087,142.637 87.5,139.5C 91.7053,140.735 95.872,142.069 100,143.5C 105.656,141.291 111.49,139.457 117.5,138C 132.018,135.079 146.351,132.746 160.5,131C 161.833,129.667 163.167,128.333 164.5,127C 164.167,126.667 163.833,126.333 163.5,126C 166.24,120.679 169.073,115.512 172,110.5C 174.429,105.25 173.929,100.416 170.5,96C 171.858,95.0656 173.192,94.2323 174.5,93.5 Z"/></g>
<g><path style="opacity:1" fill="#000000" d="M 533.5,126.5 C 533.56,127.043 533.893,127.376 534.5,127.5C 539.954,121.249 543.788,114.249 546,106.5C 538.725,109.523 531.225,111.856 523.5,113.5C 520.915,112.246 518.248,111.079 515.5,110C 514.707,108.915 514.04,107.748 513.5,106.5C 518.274,105.451 523.274,105.284 528.5,106C 535.316,105.094 541.649,102.927 547.5,99.5C 550.034,100.776 552.534,101.11 555,100.5C 555.849,103.255 556.516,105.921 557,108.5C 552.273,116.562 546.773,124.062 540.5,131C 544.734,134.886 549.067,137.886 553.5,140C 553.043,140.414 552.709,140.914 552.5,141.5C 556.642,143.809 559.976,146.976 562.5,151C 568.464,154.328 574.464,157.661 580.5,161C 581.337,162.011 581.67,163.178 581.5,164.5C 576.53,163.267 571.697,161.6 567,159.5C 566.586,159.957 566.086,160.291 565.5,160.5C 560.754,157.795 555.754,155.628 550.5,154C 546.661,151.51 542.995,148.843 539.5,146C 538.277,143.056 536.444,140.556 534,138.5C 526.37,148.644 516.37,154.978 504,157.5C 502.184,156.671 500.351,155.837 498.5,155C 501.833,154.333 505.167,153.667 508.5,153C 516.579,148.256 523.412,142.09 529,134.5C 529.781,133.056 529.614,131.723 528.5,130.5C 525.99,128.489 523.657,126.322 521.5,124C 518.48,122.3 515.48,120.634 512.5,119C 513,118.5 513.5,118 514,117.5C 521.221,119.915 527.721,122.915 533.5,126.5 Z"/></g>
<g><path style="opacity:1" fill="#000000" d="M 123.5,108.5 C 133.26,107.379 139.926,111.379 143.5,120.5C 143.291,121.086 142.957,121.586 142.5,122C 145.686,126.69 144.686,128.857 139.5,128.5C 131.309,124.116 125.975,117.45 123.5,108.5 Z"/></g>
<g><path style="opacity:1" fill="#000000" d="M 91.5,112.5 C 94.6492,112.211 97.6492,112.711 100.5,114C 103.699,117.696 106.699,121.53 109.5,125.5C 110.478,125.023 111.311,124.357 112,123.5C 113.518,125.614 113.851,127.947 113,130.5C 112.04,132.98 111.207,135.48 110.5,138C 106.125,138.653 102.292,137.487 99,134.5C 96.9295,128.598 93.9295,123.265 90,118.5C 89.2516,116.16 89.7516,114.16 91.5,112.5 Z"/></g>
<g><path style="opacity:1" fill="#010201" d="M 531.5,122.5 C 532.833,123.167 532.833,123.167 531.5,122.5 Z"/></g>
<g><path style="opacity:1" fill="#020302" d="M 533.5,125.5 C 534.833,126.167 534.833,126.167 533.5,125.5 Z"/></g>
<g><path style="opacity:0.985" fill="#000000" d="M 151.5,167.5 C 149.31,168.802 147.31,170.469 145.5,172.5C 144.614,173.325 144.281,174.325 144.5,175.5C 149.085,176.242 152.418,178.742 154.5,183C 158.762,183.248 162.929,182.748 167,181.5C 172.136,181.527 177.303,181.527 182.5,181.5C 187.326,183.746 191.992,186.246 196.5,189C 198.037,190.11 198.703,191.61 198.5,193.5C 197.448,193.351 196.448,193.517 195.5,194C 196.654,194.914 196.487,195.747 195,196.5C 192.219,196.131 189.552,196.131 187,196.5C 183.502,196.203 180.502,194.87 178,192.5C 177.586,192.957 177.086,193.291 176.5,193.5C 174.885,192.846 173.218,192.346 171.5,192C 166.216,191.718 161.05,191.551 156,191.5C 156.003,193.856 156.503,196.189 157.5,198.5C 157.469,203.32 157.469,208.154 157.5,213C 157.148,220.854 154.814,228.354 150.5,235.5C 148.5,236.833 146.5,236.833 144.5,235.5C 139.5,230.167 134.5,224.833 129.5,219.5C 129.667,219.167 129.833,218.833 130,218.5C 134.66,220.886 139.494,222.553 144.5,223.5C 147.633,213.783 149.3,203.783 149.5,193.5C 144.889,193.659 140.389,194.325 136,195.5C 135.586,195.043 135.086,194.709 134.5,194.5C 133.41,195.727 132.076,196.56 130.5,197C 124.392,198.32 118.392,199.82 112.5,201.5C 106.845,201.355 102.511,198.855 99.5,194C 100,193.5 100.5,193 101,192.5C 105.365,193.262 109.698,193.596 114,193.5C 117.361,190.737 121.195,188.903 125.5,188C 132.673,186.135 139.673,184.635 146.5,183.5C 143.949,180.544 140.949,178.044 137.5,176C 136.941,175.275 136.608,174.442 136.5,173.5C 138.388,171.619 140.221,169.619 142,167.5C 144.158,163.008 142.991,162.341 138.5,165.5C 136.941,164.926 135.441,164.26 134,163.5C 128.597,166.323 123.597,165.657 119,161.5C 118.338,159.187 117.838,156.854 117.5,154.5C 120.741,155.879 123.907,157.545 127,159.5C 136.106,156.366 145.272,153.366 154.5,150.5C 158.914,150.42 161.081,152.42 161,156.5C 157.572,160.084 154.405,163.75 151.5,167.5 Z"/></g>
<g><path style="opacity:0.962" fill="#010101" d="M 531.5,157.5 C 534.797,159.133 536.464,161.8 536.5,165.5C 532.684,166.401 529.017,167.901 525.5,170C 523.866,170.494 522.199,170.66 520.5,170.5C 520.657,169.127 520.49,167.793 520,166.5C 515.328,168.209 510.495,169.376 505.5,170C 504.421,170.956 503.255,171.789 502,172.5C 498.784,171.538 495.618,170.372 492.5,169C 491.643,168.311 490.977,167.478 490.5,166.5C 500.599,165.642 510.599,164.142 520.5,162C 522.676,161.837 524.509,161.004 526,159.5C 528.298,160.446 530.132,159.779 531.5,157.5 Z"/></g>
<g><path style="opacity:1" fill="#020302" d="M 151.5,167.5 C 152.833,168.167 152.833,168.167 151.5,167.5 Z"/></g>
<g><path style="opacity:0.998" fill="#000000" d="M 551.5,171.5 C 555.029,172.367 558.362,173.7 561.5,175.5C 563.089,179.329 562.089,182.329 558.5,184.5C 553.036,183.679 547.37,182.679 541.5,181.5C 537.336,182.669 533.169,182.669 529,181.5C 527.352,182.717 525.519,183.55 523.5,184C 524.578,184.674 525.245,185.674 525.5,187C 524.621,191.733 523.621,196.4 522.5,201C 526.667,210.186 525.833,218.686 520,226.5C 517.845,227.683 515.845,227.35 514,225.5C 511.297,221.63 508.797,217.63 506.5,213.5C 506.667,212.833 506.833,212.167 507,211.5C 513.87,217.652 517.37,215.985 517.5,206.5C 517.534,199.89 517.201,193.224 516.5,186.5C 514.727,185.913 512.894,185.58 511,185.5C 505.851,186.412 500.684,187.245 495.5,188C 489.498,190.778 483.331,192.944 477,194.5C 472.015,194.247 468.515,191.913 466.5,187.5C 466.833,186.833 467.167,186.167 467.5,185.5C 470.833,186.167 474.167,186.833 477.5,187.5C 488.222,181.975 499.389,178.641 511,177.5C 516.01,176.081 521.343,174.747 527,173.5C 528.268,173.616 529.602,173.949 531,174.5C 537.755,173.746 544.588,172.746 551.5,171.5 Z"/></g>
<g><path style="opacity:1" fill="#000000" d="M 491.5,191.5 C 493.417,192.909 495.25,194.576 497,196.5C 497.635,198.635 497.301,200.635 496,202.5C 491.167,206.667 486.333,210.833 481.5,215C 477.363,217.392 473.03,217.892 468.5,216.5C 476.648,212.523 483.815,207.19 490,200.5C 491.289,197.649 491.789,194.649 491.5,191.5 Z"/></g>
<g><path style="opacity:1" fill="#000000" d="M 534.5,192.5 C 534.735,191.903 535.235,191.57 536,191.5C 545.572,194.536 554.405,199.036 562.5,205C 564.743,207.488 566.743,210.154 568.5,213C 566.685,215.27 564.352,215.936 561.5,215C 555.549,211.05 550.216,206.383 545.5,201C 543.421,199.36 541.088,198.194 538.5,197.5C 537.388,195.581 536.054,193.914 534.5,192.5 Z"/></g>
<g><path style="opacity:0.076" fill="#020202" d="M 197.5,197.5 C 197.897,196.475 198.563,196.308 199.5,197C 198.906,197.464 198.239,197.631 197.5,197.5 Z"/></g>
</svg>
