<?xml version="1.0" encoding="UTF-8" standalone="no"?>
<!DOCTYPE svg PUBLIC "-//W3C//DTD SVG 1.1//EN" "http://www.w3.org/Graphics/SVG/1.1/DTD/svg11.dtd">
<svg width="100%" height="100%" viewBox="0 0 1080 1080" version="1.1" xmlns="http://www.w3.org/2000/svg" xmlns:xlink="http://www.w3.org/1999/xlink" xml:space="preserve" xmlns:serif="http://www.serif.com/" style="fill-rule:evenodd;clip-rule:evenodd;stroke-linejoin:round;stroke-miterlimit:2;">
    <g transform="matrix(1.33333,0,0,1.33333,-227.209,-135.214)">
        <path d="M980.406,213.911C980.406,184.074 968.553,155.459 947.455,134.361C926.358,113.263 897.743,101.411 867.906,101.411L282.906,101.411C253.069,101.411 224.455,113.263 203.357,134.361C182.259,155.459 170.406,184.074 170.406,213.911L170.406,798.91C170.406,828.747 182.259,857.362 203.357,878.46C224.455,899.558 253.069,911.41 282.906,911.41L867.906,911.41C897.743,911.41 926.358,899.558 947.455,878.46C968.553,857.362 980.406,828.747 980.406,798.91L980.406,213.911Z" style="fill:white;"/>
    </g>
    <g transform="matrix(1.34328,0,0,1.34328,-185.373,-185.373)">
        <g transform="matrix(0.76589,0,0,0.76589,99.3023,127.331)">
            <rect x="138.006" y="101.411" width="874.8" height="874.8" style="fill:white;"/>
        </g>
        <g transform="matrix(1,0,0,1,180,0)">
            <g transform="matrix(0.987197,0,0,0.987197,40.7128,-10.1367)">
                <path d="M505.763,381.991L451.609,381.991C435.521,381.991 421.206,392.198 415.963,407.406C401.011,450.774 371.022,537.759 358.988,572.662C357.796,576.119 358.349,579.939 360.472,582.916C362.594,585.893 366.025,587.661 369.682,587.661C375.481,587.661 381.785,587.661 386.567,587.661C391.248,587.661 395.445,584.778 397.125,580.41C406.31,556.528 435.464,480.729 443.125,460.808C444.245,457.896 447.043,455.975 450.164,455.975L453.932,455.975C456.454,455.975 458.808,457.235 460.207,459.333C461.605,461.43 461.863,464.089 460.893,466.416C448.738,495.589 414.245,578.371 397.972,617.426C396.033,622.081 396.548,627.397 399.345,631.593C402.142,635.789 406.851,638.309 411.894,638.309C421.189,638.309 431.702,638.309 440.032,638.309C444.032,638.309 447.868,639.898 450.697,642.726C453.525,645.555 455.114,649.391 455.114,653.391C455.114,690.938 455.114,788.274 455.114,825.821C455.114,829.821 456.703,833.657 459.532,836.485C462.36,839.314 466.196,840.903 470.196,840.903C473.579,840.903 477.168,840.903 480.551,840.903C484.551,840.903 488.387,839.314 491.215,836.485C494.044,833.657 495.633,829.821 495.633,825.821C495.633,783.416 495.633,664.753 495.633,642.079C495.633,639.997 497.321,638.309 499.403,638.309L505.763,638.309L505.763,381.991Z" style="fill:rgb(255,102,102);"/>
            </g>
            <g transform="matrix(-0.987197,0,0,0.987197,1039.29,-10.1367)">
                <path d="M505.763,381.991L451.609,381.991C435.521,381.991 421.206,392.198 415.963,407.406C401.011,450.774 371.022,537.759 358.988,572.662C357.796,576.119 358.349,579.939 360.472,582.916C362.594,585.893 366.025,587.661 369.682,587.661C375.481,587.661 381.785,587.661 386.567,587.661C391.248,587.661 395.445,584.778 397.125,580.41C406.31,556.528 435.464,480.729 443.125,460.808C444.245,457.896 447.043,455.975 450.164,455.975L453.932,455.975C456.454,455.975 458.808,457.235 460.207,459.333C461.605,461.43 461.863,464.089 460.893,466.416C448.738,495.589 414.245,578.371 397.972,617.426C396.033,622.081 396.548,627.397 399.345,631.593C402.142,635.789 406.851,638.309 411.894,638.309C421.189,638.309 431.702,638.309 440.032,638.309C444.032,638.309 447.868,639.898 450.697,642.726C453.525,645.555 455.114,649.391 455.114,653.391C455.114,690.938 455.114,788.274 455.114,825.821C455.114,829.821 456.703,833.657 459.532,836.485C462.36,839.314 466.196,840.903 470.196,840.903C473.579,840.903 477.168,840.903 480.551,840.903C484.551,840.903 488.387,839.314 491.215,836.485C494.044,833.657 495.633,829.821 495.633,825.821C495.633,783.416 495.633,664.753 495.633,642.079C495.633,639.997 497.321,638.309 499.403,638.309L505.763,638.309L505.763,381.991Z" style="fill:rgb(255,102,102);"/>
            </g>
            <g transform="matrix(0.603576,0,0,0.603576,340.789,73.3526)">
                <circle cx="330.052" cy="337.401" r="99.408" style="fill:rgb(255,102,102);"/>
            </g>
        </g>
        <g transform="matrix(1,0,0,1,-160,0)">
            <g transform="matrix(0.987197,0,0,0.987197,40.7128,-10.1367)">
                <path d="M505.763,381.991L411.782,381.991C390.958,381.991 374.077,398.872 374.077,419.696C374.077,467.439 374.077,547.011 374.077,576.349C374.077,582.596 379.141,587.661 385.388,587.661C390.975,587.661 397.697,587.661 403.284,587.661C409.531,587.661 414.595,582.596 414.595,576.349C414.595,550.094 414.595,485.578 414.595,463.516C414.595,459.351 417.972,455.975 422.136,455.975L427.314,455.975C431.479,455.975 434.855,459.351 434.855,463.516L434.855,825.821C434.855,834.15 441.607,840.903 449.937,840.903C459.272,840.903 471.216,840.903 480.551,840.903C484.551,840.903 488.387,839.314 491.215,836.485C494.044,833.657 495.633,829.821 495.633,825.821C495.633,778.825 495.633,636.677 495.633,611.69C495.633,610.69 496.03,609.731 496.737,609.024C497.444,608.317 498.403,607.92 499.403,607.92C502.284,607.92 505.763,607.92 505.763,607.92L505.763,381.991Z" style="fill:rgb(102,103,255);"/>
            </g>
            <g transform="matrix(-0.987197,0,0,0.987197,1039.29,-10.1367)">
                <path d="M505.763,381.991L411.782,381.991C390.958,381.991 374.077,398.872 374.077,419.696C374.077,467.439 374.077,547.011 374.077,576.349C374.077,582.596 379.141,587.661 385.388,587.661C390.975,587.661 397.697,587.661 403.284,587.661C409.531,587.661 414.595,582.596 414.595,576.349C414.595,550.094 414.595,485.578 414.595,463.516C414.595,459.351 417.972,455.975 422.136,455.975L427.314,455.975C431.479,455.975 434.855,459.351 434.855,463.516L434.855,825.821C434.855,834.15 441.607,840.903 449.937,840.903C459.272,840.903 471.216,840.903 480.551,840.903C484.551,840.903 488.387,839.314 491.215,836.485C494.044,833.657 495.633,829.821 495.633,825.821C495.633,778.825 495.633,636.677 495.633,611.69C495.633,610.69 496.03,609.731 496.737,609.024C497.444,608.317 498.403,607.92 499.403,607.92C502.284,607.92 505.763,607.92 505.763,607.92L505.763,381.991Z" style="fill:rgb(102,103,255);"/>
            </g>
            <g transform="matrix(0.603576,0,0,0.603576,340.789,73.3526)">
                <circle cx="330.052" cy="337.401" r="99.408" style="fill:rgb(102,103,255);"/>
            </g>
        </g>
    </g>
</svg>
