<?xml version="1.0" encoding="UTF-8" standalone="no"?>
<!DOCTYPE svg PUBLIC "-//W3C//DTD SVG 1.1//EN" "http://www.w3.org/Graphics/SVG/1.1/DTD/svg11.dtd">
<svg width="100%" height="100%" viewBox="0 0 1080 1080" version="1.1" xmlns="http://www.w3.org/2000/svg" xmlns:xlink="http://www.w3.org/1999/xlink" xml:space="preserve" xmlns:serif="http://www.serif.com/" style="fill-rule:evenodd;clip-rule:evenodd;stroke-linejoin:round;stroke-miterlimit:2;">
    <g transform="matrix(3.53553,0,0,3.53553,-2699.96,-1569.19)">
        <g>
            <g transform="matrix(0.83022,0.83022,-3.32088,3.32088,2060.17,-2127.12)">
                <path d="M940.861,574.309C940.861,571.371 931.32,568.986 919.568,568.986C907.816,568.986 898.275,571.371 898.275,574.309L898.275,606.248C898.275,609.186 907.816,611.571 919.568,611.571C931.32,611.571 940.861,609.186 940.861,606.248L940.861,574.309Z"/>
            </g>
            <g transform="matrix(0.83022,-0.83022,3.32088,3.32088,-1754.26,-600.233)">
                <path d="M940.861,574.309C940.861,571.371 931.32,568.986 919.568,568.986C907.816,568.986 898.275,571.371 898.275,574.309L898.275,606.248C898.275,609.186 907.816,611.571 919.568,611.571C931.32,611.571 940.861,609.186 940.861,606.248L940.861,574.309Z"/>
            </g>
        </g>
    </g>
</svg>
