<?xml version="1.0" encoding="UTF-8" standalone="no"?>
<!DOCTYPE svg PUBLIC "-//W3C//DTD SVG 1.1//EN" "http://www.w3.org/Graphics/SVG/1.1/DTD/svg11.dtd">
<svg width="100%" height="100%" viewBox="0 0 1080 1080" version="1.1" xmlns="http://www.w3.org/2000/svg" xmlns:xlink="http://www.w3.org/1999/xlink" xml:space="preserve" xmlns:serif="http://www.serif.com/" style="fill-rule:evenodd;clip-rule:evenodd;stroke-linejoin:round;stroke-miterlimit:2;">
    <g transform="matrix(1,0,0,1,-58.3883,0)">
        <g transform="matrix(6.12323e-17,1,-1,6.12323e-17,1526.57,-380)">
            <g transform="matrix(0.83022,0.83022,-3.32088,3.32088,2060.23,-2127.12)">
                <path d="M940.861,574.309C940.861,571.371 931.32,568.986 919.568,568.986C907.816,568.986 898.275,571.371 898.275,574.309L898.275,606.248C898.275,609.186 907.816,611.571 919.568,611.571C931.32,611.571 940.861,609.186 940.861,606.248L940.861,574.309Z"/>
            </g>
            <g transform="matrix(0.83022,-0.83022,3.32088,3.32088,-1747.12,-600.233)">
                <path d="M940.861,574.309C940.861,571.371 931.32,568.986 919.568,568.986C907.816,568.986 898.275,571.371 898.275,574.309L898.275,606.248C898.275,609.186 907.816,611.571 919.568,611.571C931.32,611.571 940.861,609.186 940.861,606.248L940.861,574.309Z"/>
            </g>
        </g>
        <g transform="matrix(-5.5209e-17,1.17411,-19.3728,1.86862e-15,12032.8,-539.673)">
            <path d="M940.861,570.276C940.861,569.564 931.32,568.986 919.568,568.986C907.816,568.986 898.275,569.564 898.275,570.276L898.275,610.281C898.275,610.993 907.816,611.571 919.568,611.571C931.32,611.571 940.861,610.993 940.861,610.281L940.861,570.276Z"/>
        </g>
    </g>
</svg>
