<?xml version="1.0" encoding="UTF-8" standalone="no"?>
<!DOCTYPE svg PUBLIC "-//W3C//DTD SVG 1.1//EN" "http://www.w3.org/Graphics/SVG/1.1/DTD/svg11.dtd">
<svg width="100%" height="100%" viewBox="0 0 1080 1080" version="1.1" xmlns="http://www.w3.org/2000/svg" xmlns:xlink="http://www.w3.org/1999/xlink" xml:space="preserve" xmlns:serif="http://www.serif.com/" style="fill-rule:evenodd;clip-rule:evenodd;stroke-linejoin:round;stroke-miterlimit:2;">
    <g transform="matrix(0.707107,0.707107,-0.707107,0.707107,483.431,-167.107)">
        <g transform="matrix(1,0,0,1,0,-190)">
            <g transform="matrix(2.81786,2.55061e-15,1.13403e-13,9.39287,-2061.22,-4854.41)">
                <path d="M940.861,575.374C940.861,571.848 931.32,568.986 919.568,568.986C907.816,568.986 898.275,571.848 898.275,575.374L898.275,605.184C898.275,608.709 907.816,611.571 919.568,611.571C931.32,611.571 940.861,608.709 940.861,605.184L940.861,575.374Z"/>
            </g>
            <g transform="matrix(2.81786,-3.12845e-16,8.2304e-15,8.21876,-1941.22,-4136.36)">
                <path d="M940.861,576.286C940.861,572.257 931.32,568.986 919.568,568.986C907.816,568.986 898.275,572.257 898.275,576.286L898.275,604.271C898.275,608.3 907.816,611.571 919.568,611.571C931.32,611.571 940.861,608.3 940.861,604.271L940.861,576.286Z"/>
            </g>
            <g transform="matrix(2.81786,-9.07252e-16,6.71358e-15,7.04465,-1821.22,-3418.31)">
                <path d="M940.861,577.503C940.861,572.802 931.32,568.986 919.568,568.986C907.816,568.986 898.275,572.802 898.275,577.503L898.275,603.054C898.275,607.755 907.816,611.571 919.568,611.571C931.32,611.571 940.861,607.755 940.861,603.054L940.861,577.503Z"/>
            </g>
            <g transform="matrix(2.58304,-3.12845e-16,1.24219e-14,15.2634,-1960.28,-8444.67)">
                <path d="M940.861,572.589C940.861,570.6 931.32,568.986 919.568,568.986C907.816,568.986 898.275,570.6 898.275,572.589L898.275,607.968C898.275,609.957 907.816,611.571 919.568,611.571C931.32,611.571 940.861,609.957 940.861,607.968L940.861,572.589Z"/>
            </g>
            <g transform="matrix(2.34822,0,6.02916e-15,9.39287,-1859.35,-4854.41)">
                <path d="M940.861,574.309C940.861,571.371 931.32,568.986 919.568,568.986C907.816,568.986 898.275,571.371 898.275,574.309L898.275,606.248C898.275,609.186 907.816,611.571 919.568,611.571C931.32,611.571 940.861,609.186 940.861,606.248L940.861,574.309Z"/>
            </g>
        </g>
        <g>
            <g>
                <g transform="matrix(1,0,0,1,1.13687e-13,-70)">
                    <path d="M812.246,600.024L812.25,600.037C771.482,710.856 664.911,790 540,790C415.089,790 308.518,710.856 267.75,600.037L267.754,600.024C308.518,655.428 415.089,695 540,695C664.911,695 771.482,655.428 812.246,600.024Z"/>
                </g>
                <g transform="matrix(1.82707,0,0,1.82707,169.138,-96.7647)">
                    <path d="M351.999,343.043C358.279,360.112 361.705,378.547 361.705,397.775C361.705,485.377 290.584,556.499 202.982,556.499C115.38,556.499 44.258,485.377 44.258,397.775C44.258,378.547 47.685,360.112 53.965,343.043C76.274,403.708 134.608,447.034 202.982,447.034C271.355,447.034 329.689,403.708 351.999,343.043Z"/>
                </g>
                <g transform="matrix(1.82707,0,0,0.913537,169.138,116.618)">
                    <path d="M53.965,452.508C76.274,391.842 134.608,348.516 202.982,348.516C271.355,348.516 329.689,391.842 351.999,452.508C329.689,513.173 271.355,556.499 202.982,556.499C134.608,556.499 76.274,513.173 53.965,452.508Z"/>
                </g>
            </g>
        </g>
    </g>
    <g transform="matrix(1.41952,0,0,1.23827,-95.4556,-116.193)">
        <circle cx="373.665" cy="665.397" r="132.263"/>
    </g>
</svg>
