<?xml version="1.0" encoding="UTF-8" standalone="no"?>
<!DOCTYPE svg PUBLIC "-//W3C//DTD SVG 1.1//EN" "http://www.w3.org/Graphics/SVG/1.1/DTD/svg11.dtd">
<svg width="100%" height="100%" viewBox="0 0 2160 2160" version="1.1" xmlns="http://www.w3.org/2000/svg" xmlns:xlink="http://www.w3.org/1999/xlink" xml:space="preserve" xmlns:serif="http://www.serif.com/" style="fill-rule:evenodd;clip-rule:evenodd;stroke-linejoin:round;stroke-miterlimit:2;">
    <g transform="matrix(-1,-1.22465e-16,1.22465e-16,-1,1372.51,1864.97)">
        <g transform="matrix(2.93527,2.93527,-23.2462,23.2462,11130.1,-15635.9)">
            <path d="M940.861,571.674C940.861,570.191 931.32,568.986 919.568,568.986C907.816,568.986 898.275,570.191 898.275,571.674L898.275,608.883C898.275,610.367 907.816,611.571 919.568,611.571C931.32,611.571 940.861,610.367 940.861,608.883L940.861,571.674Z"/>
        </g>
        <g transform="matrix(2.93527,-2.93527,11.6231,11.6231,-8835.05,-3624.19)">
            <path d="M940.861,574.363C940.861,571.395 931.32,568.986 919.568,568.986C907.816,568.986 898.275,571.395 898.275,574.363L898.275,606.194C898.275,609.162 907.816,611.571 919.568,611.571C931.32,611.571 940.861,609.162 940.861,606.194L940.861,574.363Z"/>
        </g>
    </g>
</svg>
