<?xml version="1.0" encoding="UTF-8" standalone="no"?>
<!DOCTYPE svg PUBLIC "-//W3C//DTD SVG 1.1//EN" "http://www.w3.org/Graphics/SVG/1.1/DTD/svg11.dtd">
<svg width="100%" height="100%" viewBox="0 0 1080 1080" version="1.1" xmlns="http://www.w3.org/2000/svg" xmlns:xlink="http://www.w3.org/1999/xlink" xml:space="preserve" xmlns:serif="http://www.serif.com/" style="fill-rule:evenodd;clip-rule:evenodd;stroke-linecap:round;stroke-linejoin:round;stroke-miterlimit:1.5;">
    <path d="M444.353,129.355C447.531,95.119 475.129,68.274 509.44,66.044C519.541,65.326 529.733,65 540,65C550.266,65 560.456,65.326 570.56,65.969C604.914,68.202 632.544,95.084 635.718,129.363C639.996,176.192 666.217,220.273 710,245.551C753.773,270.824 805.046,271.496 847.765,251.869C878.942,237.528 915.919,247.933 935.043,276.428C946.429,293.323 956.697,311.026 965.81,329.401C981.076,360.275 971.612,397.667 943.496,417.561C905.074,444.679 880,489.435 880,540C880,590.565 905.074,635.319 943.453,662.497C971.539,682.371 980.993,719.725 965.742,750.567C956.694,768.973 946.426,786.674 935.098,803.61C915.956,832.133 878.942,842.549 847.733,828.195C805.045,808.504 753.773,809.176 710,834.449C666.217,859.727 639.996,903.808 635.644,950.63C632.473,984.873 604.872,1011.73 570.555,1013.96C560.456,1014.67 550.266,1015 540,1015C529.734,1015 519.544,1014.67 509.44,1014.03C475.086,1011.8 447.456,984.916 444.282,950.637C440.004,903.808 413.783,859.727 370,834.449C326.227,809.176 274.954,808.504 232.235,828.131C201.058,842.472 164.081,832.067 144.957,803.572C133.571,786.677 123.303,768.974 114.19,750.599C98.924,719.725 108.388,682.333 136.504,662.439C174.926,635.321 200,590.565 200,540C200,489.435 174.926,444.68 136.547,417.503C108.461,397.629 99.007,360.275 114.258,329.433C123.313,311.012 133.59,293.296 144.928,276.35C164.07,247.832 201.077,237.417 232.282,251.766C274.966,271.448 326.232,270.773 370,245.504C413.773,220.232 439.991,176.165 444.353,129.355Z" style="fill:none;stroke:black;stroke-width:65px;"/>
    <g transform="matrix(1.05736,0,0,1.05736,39.3659,30.8526)">
        <circle cx="473.474" cy="481.525" r="189.15" style="fill:none;stroke:black;stroke-width:61.47px;"/>
    </g>
</svg>
