<?xml version="1.0" encoding="UTF-8" standalone="no"?>
<!DOCTYPE svg PUBLIC "-//W3C//DTD SVG 1.1//EN" "http://www.w3.org/Graphics/SVG/1.1/DTD/svg11.dtd">
<svg width="100%" height="100%" viewBox="0 0 1080 1080" version="1.1" xmlns="http://www.w3.org/2000/svg" xmlns:xlink="http://www.w3.org/1999/xlink" xml:space="preserve" xmlns:serif="http://www.serif.com/" style="fill-rule:evenodd;clip-rule:evenodd;stroke-linecap:round;stroke-linejoin:round;stroke-miterlimit:1.5;">
    <g transform="matrix(1,0,0,1,10,0)">
        <g transform="matrix(0.83022,0.83022,-3.32088,3.32088,2060.23,-2127.12)">
            <path d="M940.861,574.309C940.861,571.371 931.32,568.986 919.568,568.986C907.816,568.986 898.275,571.371 898.275,574.309L898.275,606.248C898.275,609.186 907.816,611.571 919.568,611.571C931.32,611.571 940.861,609.186 940.861,606.248L940.861,574.309Z"/>
        </g>
        <g transform="matrix(0.83022,-0.83022,3.32088,3.32088,-1747.12,-600.233)">
            <path d="M940.861,574.309C940.861,571.371 931.32,568.986 919.568,568.986C907.816,568.986 898.275,571.371 898.275,574.309L898.275,606.248C898.275,609.186 907.816,611.571 919.568,611.571C931.32,611.571 940.861,609.186 940.861,606.248L940.861,574.309Z"/>
        </g>
    </g>
    <path d="M929.423,340C925.859,293.774 905.905,250.133 872.886,217.114C836.316,180.545 786.717,160 735,160L345,160C293.283,160 243.684,180.545 207.114,217.114C170.545,253.684 150,303.283 150,355L150,745C150,796.717 170.545,846.316 207.114,882.886C243.684,919.455 293.283,940 345,940L735,940C786.717,940 836.316,919.455 872.886,882.886C909.455,846.316 930,796.717 930,745L930,540" style="fill:none;stroke:black;stroke-width:50px;"/>
    <g transform="matrix(8.24769e-17,1.34695,-1.34695,8.24769e-17,1138.01,-50.0961)">
        <path d="M438.098,348.756L530.9,509.494L345.296,509.494L438.098,348.756Z" style="stroke:black;stroke-width:37.12px;"/>
    </g>
</svg>
