<?xml version="1.0" encoding="UTF-8" standalone="no"?>
<!DOCTYPE svg PUBLIC "-//W3C//DTD SVG 1.1//EN" "http://www.w3.org/Graphics/SVG/1.1/DTD/svg11.dtd">
<svg width="100%" height="100%" viewBox="0 0 1080 1080" version="1.1" xmlns="http://www.w3.org/2000/svg" xmlns:xlink="http://www.w3.org/1999/xlink" xml:space="preserve" xmlns:serif="http://www.serif.com/" style="fill-rule:evenodd;clip-rule:evenodd;stroke-linejoin:round;stroke-miterlimit:2;">
    <g transform="matrix(0.95,0,0,0.95,27,26.25)">
        <g transform="matrix(2.64341,0,0,2.64341,-711.585,-732.868)">
            <path d="M473.474,292.375C577.868,292.375 662.623,377.13 662.623,481.525C662.623,585.919 577.868,670.674 473.474,670.674C369.079,670.674 284.324,585.919 284.324,481.525C284.324,377.13 369.079,292.375 473.474,292.375ZM473.474,322.241C561.385,322.241 632.757,393.614 632.757,481.525C632.757,569.436 561.385,640.809 473.474,640.809C385.562,640.809 314.19,569.436 314.19,481.525C314.19,393.614 385.562,322.241 473.474,322.241Z"/>
        </g>
        <g transform="matrix(1.36842,0,0,1.36842,-198.947,-22.1053)">
            <g transform="matrix(0.970137,0,0,0.626462,15.9977,-7.00406)">
                <path d="M668.98,67.05C668.98,45.025 657.433,27.143 643.21,27.143L437.054,27.143C422.831,27.143 411.284,45.025 411.284,67.05C411.284,89.075 422.831,106.956 437.054,106.956L643.21,106.956C657.433,106.956 668.98,89.075 668.98,67.05Z"/>
            </g>
            <g transform="matrix(0.970137,0,0,0.481894,15.9977,21.92)">
                <rect x="411.284" y="27.143" width="257.696" height="79.813"/>
            </g>
        </g>
    </g>
</svg>
