<?xml version="1.0" encoding="UTF-8" standalone="no"?>
<!DOCTYPE svg PUBLIC "-//W3C//DTD SVG 1.1//EN" "http://www.w3.org/Graphics/SVG/1.1/DTD/svg11.dtd">
<svg width="100%" height="100%" viewBox="0 0 1080 1080" version="1.1" xmlns="http://www.w3.org/2000/svg" xmlns:xlink="http://www.w3.org/1999/xlink" xml:space="preserve" xmlns:serif="http://www.serif.com/" style="fill-rule:evenodd;clip-rule:evenodd;stroke-linejoin:round;stroke-miterlimit:2;">
    <g transform="matrix(0.95,0,0,0.95,27,26.25)">
        <g transform="matrix(-0.75,-1.38778e-16,1.249e-16,-0.5,945,460)">
            <g>
                <g transform="matrix(1.4239,0,0,1.4239,-173.37,178.562)">
                    <path d="M536.112,253.837C536.112,234.456 525.622,218.722 512.702,218.722L489.292,218.722C476.372,218.722 465.882,234.456 465.882,253.837C465.882,273.217 476.372,288.952 489.292,288.952L512.702,288.952C525.622,288.952 536.112,273.217 536.112,253.837Z"/>
                </g>
                <g transform="matrix(1.4239,0,0,9.9673,-173.37,-2340.07)">
                    <rect x="465.882" y="218.722" width="70.23" height="70.23"/>
                </g>
            </g>
        </g>
        <g transform="matrix(0.330426,0,0,0.330426,383.552,380.891)">
            <circle cx="473.474" cy="481.525" r="189.15"/>
        </g>
    </g>
</svg>
