<?xml version="1.0" encoding="UTF-8" standalone="no"?>
<!DOCTYPE svg PUBLIC "-//W3C//DTD SVG 1.1//EN" "http://www.w3.org/Graphics/SVG/1.1/DTD/svg11.dtd">
<svg width="100%" height="100%" viewBox="0 0 2160 2160" version="1.1" xmlns="http://www.w3.org/2000/svg" xmlns:xlink="http://www.w3.org/1999/xlink" xml:space="preserve" xmlns:serif="http://www.serif.com/" style="fill-rule:evenodd;clip-rule:evenodd;stroke-linejoin:round;stroke-miterlimit:2;">
    <g transform="matrix(1,0,0,1,0,-118.725)">
        <g transform="matrix(0.897037,0,0,0.108485,-25.3479,585.49)">
            <path d="M1778.46,1193.8C1778.46,1010.45 1769.65,834.601 1753.98,704.949C1738.3,575.298 1717.03,502.461 1694.86,502.461L769.587,502.461C747.412,502.461 726.146,575.298 710.467,704.949C694.787,834.601 685.978,1010.45 685.978,1193.8L685.978,1424.25L1778.46,1424.25L1778.46,1193.8Z"/>
        </g>
        <g transform="matrix(1.3,0,0,1.3,378,544.45)">
            <g transform="matrix(0.970137,0,0,0.626462,15.9977,-7.00406)">
                <path d="M668.98,67.05C668.98,45.025 657.433,27.143 643.21,27.143L437.054,27.143C422.831,27.143 411.284,45.025 411.284,67.05C411.284,89.075 422.831,106.956 437.054,106.956L643.21,106.956C657.433,106.956 668.98,89.075 668.98,67.05Z"/>
            </g>
            <g transform="matrix(0.970137,0,0,0.481894,15.9977,21.92)">
                <rect x="411.284" y="27.143" width="257.696" height="79.813"/>
            </g>
        </g>
    </g>
</svg>
