<?xml version="1.0" encoding="UTF-8" standalone="no"?>
<!DOCTYPE svg PUBLIC "-//W3C//DTD SVG 1.1//EN" "http://www.w3.org/Graphics/SVG/1.1/DTD/svg11.dtd">
<svg width="100%" height="100%" viewBox="0 0 2160 2160" version="1.1" xmlns="http://www.w3.org/2000/svg" xmlns:xlink="http://www.w3.org/1999/xlink" xml:space="preserve" xmlns:serif="http://www.serif.com/" style="fill-rule:evenodd;clip-rule:evenodd;stroke-linejoin:round;stroke-miterlimit:2;">
    <path d="M1570,691.312L590,691.312C590,691.312 643.545,1304.09 668.034,1584.35C674.805,1661.83 739.683,1721.29 817.464,1721.29L1342.54,1721.29C1420.32,1721.29 1485.19,1661.83 1491.97,1584.35C1516.45,1304.09 1570,691.312 1570,691.312ZM1110,836.3C1110,819.743 1096.56,806.3 1080,806.3C1063.44,806.3 1050,819.743 1050,836.3L1050,1576.3C1050,1592.86 1063.44,1606.3 1080,1606.3C1096.56,1606.3 1110,1592.86 1110,1576.3L1110,836.3ZM850,836.3C850,819.743 836.557,806.3 820,806.3C803.443,806.3 790,819.743 790,836.3L790,1576.3C790,1592.86 803.443,1606.3 820,1606.3C836.557,1606.3 850,1592.86 850,1576.3L850,836.3ZM1370,836.3C1370,819.743 1356.56,806.3 1340,806.3C1323.44,806.3 1310,819.743 1310,836.3L1310,1576.3C1310,1592.86 1323.44,1606.3 1340,1606.3C1356.56,1606.3 1370,1592.86 1370,1576.3L1370,836.3Z"/>
</svg>
