<?xml version="1.0" encoding="UTF-8" standalone="no"?>
<!DOCTYPE svg PUBLIC "-//W3C//DTD SVG 1.1//EN" "http://www.w3.org/Graphics/SVG/1.1/DTD/svg11.dtd">
<svg width="100%" height="100%" viewBox="0 0 1920 1080" version="1.1" xmlns="http://www.w3.org/2000/svg" xmlns:xlink="http://www.w3.org/1999/xlink" xml:space="preserve" xmlns:serif="http://www.serif.com/" style="fill-rule:evenodd;clip-rule:evenodd;stroke-linejoin:round;stroke-miterlimit:2;">
    <g transform="matrix(0.966815,0,0,0.966815,513.604,5.43032)">
        <g>
            <g>
                <clipPath id="_clip1">
                    <rect x="291.062" y="604.634" width="100" height="100"/>
                </clipPath>
                <g clip-path="url(#_clip1)">
                    <path d="M291.062,552.918C262.519,552.918 239.346,576.091 239.346,604.634C239.346,633.177 262.519,656.351 291.062,656.351C319.605,656.351 342.778,633.177 342.778,604.634C342.778,576.091 319.605,552.918 291.062,552.918ZM291.062,573.605C308.188,573.605 322.092,587.509 322.092,604.634C322.092,621.76 308.188,635.664 291.062,635.664C273.936,635.664 260.032,621.76 260.032,604.634C260.032,587.509 273.936,573.605 291.062,573.605Z" style="fill:rgb(255,153,101);"/>
                </g>
            </g>
        </g>
    </g>
</svg>
