<?xml version="1.0" encoding="UTF-8" standalone="no"?>
<!DOCTYPE svg PUBLIC "-//W3C//DTD SVG 1.1//EN" "http://www.w3.org/Graphics/SVG/1.1/DTD/svg11.dtd">
<svg width="100%" height="100%" viewBox="0 0 1920 1080" version="1.1" xmlns="http://www.w3.org/2000/svg" xmlns:xlink="http://www.w3.org/1999/xlink" xml:space="preserve" xmlns:serif="http://www.serif.com/" style="fill-rule:evenodd;clip-rule:evenodd;stroke-linejoin:round;stroke-miterlimit:2;">
    <g transform="matrix(1.93363,0,0,1.93363,168.983,-609.139)">
        <g>
            <g>
                <clipPath id="_clip1">
                    <rect x="291.062" y="604.634" width="100" height="100"/>
                </clipPath>
                <g clip-path="url(#_clip1)">
                    <path d="M291.062,563.261C268.228,563.261 249.689,581.8 249.689,604.634C249.689,627.469 268.228,646.007 291.062,646.007C313.896,646.007 332.435,627.469 332.435,604.634C332.435,581.8 313.896,563.261 291.062,563.261ZM291.062,573.605C308.188,573.605 322.092,587.509 322.092,604.634C322.092,621.76 308.188,635.664 291.062,635.664C273.936,635.664 260.032,621.76 260.032,604.634C260.032,587.509 273.936,573.605 291.062,573.605Z" style="fill:rgb(255,190,101);"/>
                </g>
            </g>
        </g>
    </g>
</svg>
